<?xml version="1.0" encoding="utf-8"?>
<!-- Generator: Adobe Illustrator 20.1.0, SVG Export Plug-In . SVG Version: 6.00 Build 0)  -->
<svg version="1.1" id="Layer_1" xmlns="http://www.w3.org/2000/svg" xmlns:xlink="http://www.w3.org/1999/xlink" x="0px" y="0px"
	 viewBox="0 0 550.5 132" style="enable-background:new 0 0 550.5 132;" xml:space="preserve">
<style type="text/css">
	.st0{fill:#76848F;}
	.st1{fill:#6E993F;}
</style>
<path class="st0" d="M142.5,43h35.7c13,0,27.2,1.8,27.2,18.5c0,6.8-3,11.7-8.9,14.8c7.5,3.2,11.9,8.9,11.9,17.3
	c0,7.5-3.7,15.4-10.8,18.5c-5.9,2.5-12.5,2.6-18.8,2.6h-36.2V43z M180.8,72.8c7.1,0,14-1.8,14-10.2c0-8.5-6.9-10.2-14-10.2h-27.3
	v20.4H180.8z M182.5,105.3c8,0,14.7-2.5,14.7-11.6c0-9-6.9-11.7-14.7-11.7h-29v23.3H182.5z"/>
<path class="st0" d="M215.7,43h10.4v11.2h-10.4V43z M215.7,61.6h10.4v53.1h-10.4V61.6z"/>
<path class="st0" d="M264.4,116.1c-16.7,0-30.8-10.3-30.8-27.9c0-17.6,14.2-27.9,30.8-27.9c16.6,0,30.8,10.3,30.8,27.9
	C295.2,105.8,281,116.1,264.4,116.1z M264.4,68.5c-11.7,0-20.1,7.8-20.1,19.7s8.4,19.7,20.1,19.7c11.8,0,20.1-7.7,20.1-19.7
	C284.5,76.3,276.1,68.5,264.4,68.5z"/>
<path class="st1" d="M345.1,117.1c-22.2,0-43.8-14.3-43.8-38.3c0-24.1,21.6-38.2,43.8-38.2c22.2,0,43.8,14.2,43.8,38.2
	C388.9,102.9,367.3,117.1,345.1,117.1z M345.1,54.5c-13.6,0-24.2,10.7-24.2,24.3c0,13.5,10.5,24.4,24.2,24.4
	c13.5,0,24.1-10.9,24.1-24.4C369.1,65.3,358.6,54.5,345.1,54.5z"/>
<path class="st1" d="M395.9,61.7h17v6.4c5.9-4.9,12.4-8.3,20.2-8.3c6.8,0,14,1.9,18.7,7.1c4.9,5.3,5.4,11.6,5.4,18.5v29.2h-17V86.5
	c0-8.6-4.4-14-13.4-14c-8.8,0-13.9,6-13.9,14.5v27.6h-17V61.7z"/>
<path class="st1" d="M479.3,91.6c0.2,9.1,7.1,13.4,15.7,13.4c5.4,0,10-2,12.1-7.1H526c-4.5,12.9-18.3,18.9-31,18.9
	c-19.3,0-32.8-9.1-32.8-29.4c0-17.9,15.1-27.8,31.7-27.8c21.3,0,32.3,11.1,32.8,32H479.3z M494.2,70.1c-7.5,0-12.7,3.9-14.3,11h28.6
	C506.7,74,501.6,70.1,494.2,70.1z"/>
<path class="st1" d="M66.7,79.1C58.3,58.1,49,46.8,36.8,43c-8.7-2.7-17.6-2.6-25.9,0v44.5C22.9,72,47.9,76.1,56,99.4
	c2.6,7.5,3.6,15.1,3.1,22.2h33C82.9,114.6,75,99.9,66.7,79.1z"/>
<path class="st1" d="M37,104.1c-8,0.5-14.1,8-14.6,17.6h30.1C52,111.7,45.1,103.6,37,104.1z"/>
<path class="st1" d="M87.7,46.7c-15.5,3.7-32.4-3.8-42.8-5c25.6,10.9,34.8,56.2,53.3,61.9c11.6,3.6,19.8-4.3,18.1-16.6
	c0.1,0,0.2,0.1,0.3,0.2V19.9C110,35.3,98.5,44.1,87.7,46.7z"/>
<path class="st1" d="M97.6,36.4c7.4-5.2,13.5-13.4,17.1-24.3H10.8v27.4c6.5-2.3,13.7-3.6,21.4-3.8C59.8,35,77.4,50.6,97.6,36.4z"/>
</svg>
