<?xml version="1.0" encoding="utf-8"?>
<!-- Generator: Adobe Illustrator 21.0.2, SVG Export Plug-In . SVG Version: 6.00 Build 0)  -->
<svg version="1.1" id="Layer_1" xmlns="http://www.w3.org/2000/svg" xmlns:xlink="http://www.w3.org/1999/xlink" x="0px" y="0px"
	 viewBox="0 0 1277.9 572.2" style="enable-background:new 0 0 1277.9 572.2;" xml:space="preserve">
<style type="text/css">
	.st0{fill:#FFFFFF;}
	.st1{fill:#009685;}
	.st2{fill:#A5C48B;}
	.st3{fill:#6CB7AF;}
	.st4{fill:#70A041;}
	.st5{fill:#B7DED9;}
	.st6{fill:#7D797B;}
	.st7{fill:#211E1F;}
	.st8{fill:#221F1F;}
</style>
<g>
	<g>
		<path class="st0" d="M190.3,424.8c0,9.5,7.8,17.2,17.2,17.2h21.9v-97.2c0-42.5,22.5-79.8,56.1-100.8c3.8-2.3,3.8-7.7,0-10.1
			c-33.7-21.3-56.1-61.3-56.1-103.8l-20.4,0c-11,0-18.7,7.8-18.7,17.2V424.8z"/>
		<path class="st0" d="M395.2,247.3h-48.7c-53.8,0-97.4,43.6-97.4,97.4v0h48.7C351.6,344.7,395.2,301.1,395.2,247.3L395.2,247.3z"/>
		<path class="st0" d="M395.2,227.6h-48.7c-53.8,0-97.4-43.6-97.4-97.4h48.7C351.6,130.2,395.2,173.8,395.2,227.6z"/>
		<path class="st0" d="M248.9,442l0.2-77.5h48.7c24.2,0,46.7-7.4,65.4-19.9c7.5-5.1,14.4-11,20.6-17.6c3.3-3.6,9.4-1.7,10.2,3.1
			c0.7,4.7,1.1,9.5,1.1,14.5h0v0c0,53.8-43.6,97.4-97.4,97.4L248.9,442z"/>
	</g>
	<g>
		<path class="st0" d="M496.5,439.1V316.6H561c23.3,0,35.3,14.9,35.3,31.2c0,15.4-9.6,25.7-21.1,28.1c13,2,23.5,14.7,23.5,30.1
			c0,18.4-12.3,33.1-35.6,33.1H496.5z M569.6,352.4c0-7.7-5.5-13.4-14.3-13.4h-32.7v26.6h32.7C564.1,365.6,569.6,360.1,569.6,352.4z
			 M572,402.4c0-7.7-5.5-14.3-15.8-14.3h-33.6v28.5h33.6C566.1,416.5,572,411.2,572,402.4z"/>
		<path class="st0" d="M611.7,326.9c0-7.7,6.4-13.8,14-13.8c7.7,0,14,6.1,14,13.8c0,7.7-6.2,14-14,14
			C618.1,340.8,611.7,334.6,611.7,326.9z M614.1,439.1v-88.8h23.3v88.8H614.1z"/>
		<path class="st0" d="M650.3,394.7c0-25.2,17.6-46.5,46.9-46.5c29.4,0,47,21.3,47,46.5c0,25.4-17.6,46.7-47,46.7
			C667.9,441.3,650.3,420,650.3,394.7z M719.9,394.7c0-13.8-8.3-25.7-22.8-25.7c-14.5,0-22.6,11.9-22.6,25.7
			c0,14,8.1,25.9,22.6,25.9C711.6,420.6,719.9,408.6,719.9,394.7z"/>
		<path class="st0" d="M756.1,378c0-36.9,27-63.4,63.9-63.4c37.1,0,64.1,26.5,64.1,63.4c0,36.9-27,63.4-64.1,63.4
			C783.1,441.3,756.1,414.9,756.1,378z M857.4,378c0-23-14.7-40.2-37.3-40.2c-22.6,0-37.1,17.3-37.1,40.2
			c0,22.8,14.5,40.2,37.1,40.2C842.7,418.2,857.4,400.7,857.4,378z"/>
		<path class="st0" d="M960.1,439.1v-53.7c0-12.3-6.4-16.5-16.4-16.5c-9.2,0-16.4,5.1-20.2,10.5v59.7h-23.3v-88.8h23.3V362
			c5.7-6.8,16.5-13.8,31.1-13.8c19.5,0,28.8,11,28.8,28.3v62.7H960.1z"/>
		<path class="st0" d="M997.2,394.7c0-25.7,18.9-46.5,45.9-46.5c26.5,0,44.5,19.8,44.5,48.9v5.1h-66c1.5,11.2,10.5,20.6,25.5,20.6
			c7.5,0,18-3.3,23.7-8.8l10.3,15.1c-8.8,8.1-22.8,12.3-36.6,12.3C1017.6,441.3,997.2,423.2,997.2,394.7z M1043.1,366.7
			c-14.5,0-20.8,10.8-21.9,19.7h43.7C1064.4,378,1058.6,366.7,1043.1,366.7z"/>
	</g>
</g>
</svg>
