<?xml version="1.0" encoding="utf-8"?>
<!-- Generator: Adobe Illustrator 16.0.0, SVG Export Plug-In . SVG Version: 6.00 Build 0)  -->
<!DOCTYPE svg PUBLIC "-//W3C//DTD SVG 1.1//EN" "http://www.w3.org/Graphics/SVG/1.1/DTD/svg11.dtd">
<svg version="1.1" id="Layer_1" xmlns="http://www.w3.org/2000/svg" xmlns:xlink="http://www.w3.org/1999/xlink" x="0px" y="0px"
	 width="141px" height="58.333px" viewBox="0 0 141 58.333" enable-background="new 0 0 141 58.333" xml:space="preserve">
<g>
	<g>
		<path fill="#009685" d="M10.103,48.119c0,1.297,1.065,2.35,2.35,2.35h2.992V37.191c0-5.807,3.074-10.902,7.664-13.771
			c0.519-0.312,0.519-1.051,0-1.379c-4.604-2.91-7.664-8.375-7.664-14.18h-2.787c-1.502,0-2.555,1.064-2.555,2.35V48.119z"/>
		<path fill="#A5C48B" d="M38.095,23.871h-6.653c-7.35,0-13.306,5.955-13.306,13.305l0,0h6.653
			C32.139,37.175,38.095,31.22,38.095,23.871L38.095,23.871z"/>
		<path fill="#6CB7AF" d="M38.095,21.179h-6.653c-7.35,0-13.306-5.955-13.306-13.307h6.653C32.139,7.873,38.095,13.83,38.095,21.179
			z"/>
		<path fill="#70A041" d="M18.109,50.468l0.027-10.586h6.653c3.306,0,6.38-1.012,8.934-2.719c1.025-0.697,1.967-1.502,2.815-2.404
			c0.451-0.492,1.284-0.232,1.393,0.424c0.096,0.643,0.15,1.297,0.15,1.98l0,0l0,0c0,7.35-5.956,13.307-13.306,13.307h-6.666V50.468
			z"/>
	</g>
	<g>
		<path d="M51.933,50.074V33.337h8.812c3.184,0,4.822,2.037,4.822,4.264c0,2.104-1.312,3.51-2.883,3.838
			c1.777,0.273,3.211,2.008,3.211,4.111c0,2.516-1.682,4.523-4.864,4.523H51.933L51.933,50.074z M61.921,38.228
			c0-1.053-0.752-1.83-1.955-1.83h-4.467v3.633h4.467C61.169,40.033,61.921,39.281,61.921,38.228z M62.248,45.058
			c0-1.051-0.751-1.953-2.159-1.953h-4.59v3.893h4.59C61.441,46.986,62.248,46.261,62.248,45.058z"/>
		<path d="M67.671,34.746c0-1.053,0.875-1.887,1.914-1.887c1.051,0,1.91,0.834,1.91,1.887c0,1.051-0.846,1.912-1.91,1.912
			C68.546,36.644,67.671,35.796,67.671,34.746z M67.999,50.074V37.943h3.184v12.131H67.999z"/>
		<path d="M72.944,44.007c0-3.443,2.404-6.354,6.406-6.354c4.016,0,6.422,2.91,6.422,6.354c0,3.469-2.406,6.379-6.422,6.379
			C75.349,50.373,72.944,47.462,72.944,44.007z M82.452,44.007c0-1.887-1.135-3.512-3.115-3.512s-3.086,1.625-3.086,3.512
			c0,1.912,1.105,3.537,3.086,3.537S82.452,45.906,82.452,44.007z"/>
		<path d="M87.397,41.726c0-5.041,3.689-8.662,8.73-8.662c5.066,0,8.756,3.621,8.756,8.662s-3.688,8.66-8.756,8.66
			C91.087,50.373,87.397,46.767,87.397,41.726z M101.235,41.726c0-3.143-2.008-5.492-5.096-5.492s-5.068,2.361-5.068,5.492
			c0,3.113,1.982,5.49,5.068,5.49C99.228,47.216,101.235,44.828,101.235,41.726z"/>
		<path d="M115.267,50.074v-7.336c0-1.682-0.875-2.254-2.24-2.254c-1.258,0-2.24,0.695-2.76,1.434v8.156h-3.184V37.943h3.184v1.598
			c0.779-0.928,2.254-1.885,4.248-1.885c2.666,0,3.936,1.502,3.936,3.865v8.564h-3.184V50.074L115.267,50.074z"/>
		<path d="M120.335,44.007c0-3.512,2.58-6.354,6.27-6.354c3.621,0,6.08,2.705,6.08,6.682v0.697h-9.018
			c0.205,1.529,1.436,2.814,3.484,2.814c1.023,0,2.459-0.451,3.238-1.203l1.406,2.062c-1.203,1.107-3.115,1.682-5,1.682
			C123.12,50.373,120.335,47.9,120.335,44.007z M126.604,40.183c-1.979,0-2.84,1.475-2.992,2.689h5.971
			C129.515,41.726,128.722,40.183,126.604,40.183z"/>
	</g>
</g>
</svg>
