<?xml version="1.0" encoding="utf-8"?>
<!-- Generator: Adobe Illustrator 16.0.0, SVG Export Plug-In . SVG Version: 6.00 Build 0)  -->
<!DOCTYPE svg PUBLIC "-//W3C//DTD SVG 1.1//EN" "http://www.w3.org/Graphics/SVG/1.1/DTD/svg11.dtd">
<svg version="1.1" id="Layer_1" xmlns="http://www.w3.org/2000/svg" xmlns:xlink="http://www.w3.org/1999/xlink" x="0px" y="0px"
	 width="290.898px" height="124.114px" viewBox="0 0 290.898 124.114" enable-background="new 0 0 290.898 124.114"
	 xml:space="preserve">
<g>
	<g>
		<path fill="#009685" d="M19.774,101.258c0,2.684,2.185,4.861,4.818,4.861h6.135V78.655c0-12.008,6.303-22.547,15.715-28.479
			c1.063-0.65,1.063-2.176,0-2.855C37,41.303,30.727,30.002,30.727,17.995h-5.714c-3.081,0-5.238,2.203-5.238,4.859L19.774,101.258
			L19.774,101.258z"/>
		<path fill="#A5C48B" d="M77.17,51.108H63.53c-15.071,0-27.284,12.318-27.284,27.52l0,0h13.643
			C64.957,78.627,77.17,66.307,77.17,51.108L77.17,51.108z"/>
		<path fill="#6CB7AF" d="M77.17,45.542H63.53c-15.071,0-27.284-12.318-27.284-27.52h13.643
			C64.957,18.022,77.17,30.342,77.17,45.542z"/>
		<path fill="#70A041" d="M36.189,106.12l0.056-21.898h13.643c6.777,0,13.082-2.09,18.318-5.621
			c2.103-1.441,4.034-3.107,5.772-4.975c0.924-1.018,2.632-0.48,2.855,0.877c0.197,1.328,0.309,2.684,0.309,4.098l0,0l0,0
			c0,15.199-12.213,27.52-27.283,27.52H36.189z"/>
	</g>
	<g>
		<path d="M105.546,105.299V70.688h18.068c6.527,0,9.889,4.211,9.889,8.816c0,4.35-2.688,7.26-5.91,7.938
			c3.642,0.566,6.583,4.154,6.583,8.506c0,5.199-3.447,9.352-9.974,9.352H105.546L105.546,105.299z M126.023,80.803
			c0-2.176-1.541-3.787-4.005-3.787h-9.161v7.518h9.161C124.482,84.534,126.023,82.979,126.023,80.803z M126.697,94.928
			c0-2.174-1.541-4.039-4.426-4.039h-9.413v8.051h9.413C125.041,98.915,126.697,97.417,126.697,94.928z"/>
		<path d="M137.817,73.598c0-2.176,1.793-3.9,3.923-3.9c2.156,0,3.92,1.725,3.92,3.9c0,2.174-1.735,3.955-3.92,3.955
			C139.61,77.524,137.817,75.772,137.817,73.598z M138.489,105.299V80.211h6.527v25.088H138.489z"/>
		<path d="M148.628,92.756c0-7.121,4.932-13.141,13.139-13.141c8.234,0,13.166,6.02,13.166,13.141
			c0,7.174-4.932,13.193-13.166,13.193C153.56,105.92,148.628,99.903,148.628,92.756z M168.125,92.756
			c0-3.9-2.325-7.262-6.387-7.262c-4.061,0-6.33,3.361-6.33,7.262c0,3.953,2.27,7.316,6.33,7.316
			C165.8,100.073,168.125,96.682,168.125,92.756z"/>
		<path d="M178.267,88.036c0-10.426,7.562-17.914,17.897-17.914c10.394,0,17.956,7.486,17.956,17.914
			c0,10.426-7.562,17.914-17.956,17.914C185.83,105.92,178.267,98.461,178.267,88.036z M206.642,88.036
			c0-6.498-4.118-11.357-10.449-11.357S185.8,81.565,185.8,88.036c0,6.441,4.062,11.357,10.393,11.357S206.642,94.45,206.642,88.036
			z"/>
		<path d="M235.41,105.299V90.127c0-3.477-1.792-4.662-4.594-4.662c-2.577,0-4.594,1.439-5.659,2.967v16.867h-6.526V80.211h6.526
			v3.305c1.597-1.92,4.623-3.9,8.711-3.9c5.464,0,8.068,3.107,8.068,7.996v17.717h-6.527L235.41,105.299L235.41,105.299z"/>
		<path d="M245.803,92.756c0-7.262,5.295-13.141,12.857-13.141c7.423,0,12.465,5.596,12.465,13.816v1.441h-18.488
			c0.421,3.164,2.942,5.82,7.144,5.82c2.101,0,5.042-0.932,6.639-2.486l2.886,4.266c-2.467,2.289-6.387,3.477-10.254,3.477
			C251.518,105.92,245.803,100.807,245.803,92.756z M258.66,84.842c-4.061,0-5.826,3.053-6.135,5.568h12.241
			C264.626,88.036,263.002,84.842,258.66,84.842z"/>
	</g>
</g>
</svg>
