<?xml version="1.0" encoding="utf-8"?>
<!-- Generator: Adobe Illustrator 20.1.0, SVG Export Plug-In . SVG Version: 6.00 Build 0)  -->
<svg version="1.1" id="Layer_1" xmlns="http://www.w3.org/2000/svg" xmlns:xlink="http://www.w3.org/1999/xlink" x="0px" y="0px"
	 viewBox="0 0 30 30" style="enable-background:new 0 0 30 30;" xml:space="preserve">
<style type="text/css">
	.st0{fill:#3B4991;}
	.st1{fill:none;stroke:#3B4991;stroke-miterlimit:10;}
</style>
<circle class="st1" cx="15" cy="15" r="14.4"/>
<g>
	<path class="st0" d="M8.6,6.3c-1.1,0-2,0.9-2,2c0,1.1,0.9,2,2,2c1.1,0,2-0.9,2-2C10.6,7.2,9.7,6.3,8.6,6.3L8.6,6.3z M8.6,6.3"/>
	<rect x="6.9" y="11.9" class="st0" width="3.5" height="11.2"/>
	<path class="st0" d="M19.3,11.6c-1.7,0-2.8,0.9-3.3,1.8h0v-1.5h-3.3v11.2H16v-5.6c0-1.5,0.3-2.9,2.1-2.9c1.8,0,1.8,1.7,1.8,3v5.5
		h3.5V17C23.4,14,22.8,11.6,19.3,11.6L19.3,11.6z M19.3,11.6"/>
</g>
</svg>
